<?xml version="1.0" encoding="utf-8"?>
<svg xmlns="http://www.w3.org/2000/svg" version="1.1" width="1600" height="1600">
<line x1="50.0" y1="50.0" x2="1550.0" y2="50.0" stroke="black" stroke-width="1" />
<text x="25.0" y="50.0" font-family="Verdana" font-size="10.0" text-anchor="middle"  dominant-baseline="middle" transform="rotate(-45,0 25,0 50,0)" fill="black" >
1,00
</text>
<line x1="50.0" y1="80.0" x2="1550.0" y2="80.0" stroke="black" stroke-width="1" />
<text x="25.0" y="80.0" font-family="Verdana" font-size="10.0" text-anchor="middle"  dominant-baseline="middle" transform="rotate(-45,0 25,0 80,0)" fill="black" >
0,98
</text>
<line x1="50.0" y1="110.0" x2="1550.0" y2="110.0" stroke="black" stroke-width="1" />
<text x="25.0" y="110.0" font-family="Verdana" font-size="10.0" text-anchor="middle"  dominant-baseline="middle" transform="rotate(-45,0 25,0 110,0)" fill="black" >
0,96
</text>
<line x1="50.0" y1="140.0" x2="1550.0" y2="140.0" stroke="black" stroke-width="1" />
<text x="25.0" y="140.0" font-family="Verdana" font-size="10.0" text-anchor="middle"  dominant-baseline="middle" transform="rotate(-45,0 25,0 140,0)" fill="black" >
0,94
</text>
<line x1="50.0" y1="170.0" x2="1550.0" y2="170.0" stroke="black" stroke-width="1" />
<text x="25.0" y="170.0" font-family="Verdana" font-size="10.0" text-anchor="middle"  dominant-baseline="middle" transform="rotate(-45,0 25,0 170,0)" fill="black" >
0,92
</text>
<line x1="50.0" y1="200.0" x2="1550.0" y2="200.0" stroke="black" stroke-width="1" />
<text x="25.0" y="200.0" font-family="Verdana" font-size="10.0" text-anchor="middle"  dominant-baseline="middle" transform="rotate(-45,0 25,0 200,0)" fill="black" >
0,90
</text>
<line x1="50.0" y1="230.0" x2="1550.0" y2="230.0" stroke="black" stroke-width="1" />
<text x="25.0" y="230.0" font-family="Verdana" font-size="10.0" text-anchor="middle"  dominant-baseline="middle" transform="rotate(-45,0 25,0 230,0)" fill="black" >
0,88
</text>
<line x1="50.0" y1="260.0" x2="1550.0" y2="260.0" stroke="black" stroke-width="1" />
<text x="25.0" y="260.0" font-family="Verdana" font-size="10.0" text-anchor="middle"  dominant-baseline="middle" transform="rotate(-45,0 25,0 260,0)" fill="black" >
0,86
</text>
<line x1="50.0" y1="290.0" x2="1550.0" y2="290.0" stroke="black" stroke-width="1" />
<text x="25.0" y="290.0" font-family="Verdana" font-size="10.0" text-anchor="middle"  dominant-baseline="middle" transform="rotate(-45,0 25,0 290,0)" fill="black" >
0,84
</text>
<line x1="50.0" y1="320.0" x2="1550.0" y2="320.0" stroke="black" stroke-width="1" />
<text x="25.0" y="320.0" font-family="Verdana" font-size="10.0" text-anchor="middle"  dominant-baseline="middle" transform="rotate(-45,0 25,0 320,0)" fill="black" >
0,82
</text>
<line x1="50.0" y1="350.0" x2="1550.0" y2="350.0" stroke="black" stroke-width="1" />
<text x="25.0" y="350.0" font-family="Verdana" font-size="10.0" text-anchor="middle"  dominant-baseline="middle" transform="rotate(-45,0 25,0 350,0)" fill="black" >
0,80
</text>
<line x1="50.0" y1="380.0" x2="1550.0" y2="380.0" stroke="black" stroke-width="1" />
<text x="25.0" y="380.0" font-family="Verdana" font-size="10.0" text-anchor="middle"  dominant-baseline="middle" transform="rotate(-45,0 25,0 380,0)" fill="black" >
0,78
</text>
<line x1="50.0" y1="410.0" x2="1550.0" y2="410.0" stroke="black" stroke-width="1" />
<text x="25.0" y="410.0" font-family="Verdana" font-size="10.0" text-anchor="middle"  dominant-baseline="middle" transform="rotate(-45,0 25,0 410,0)" fill="black" >
0,76
</text>
<line x1="50.0" y1="440.0" x2="1550.0" y2="440.0" stroke="black" stroke-width="1" />
<text x="25.0" y="440.0" font-family="Verdana" font-size="10.0" text-anchor="middle"  dominant-baseline="middle" transform="rotate(-45,0 25,0 440,0)" fill="black" >
0,74
</text>
<line x1="50.0" y1="470.0" x2="1550.0" y2="470.0" stroke="black" stroke-width="1" />
<text x="25.0" y="470.0" font-family="Verdana" font-size="10.0" text-anchor="middle"  dominant-baseline="middle" transform="rotate(-45,0 25,0 470,0)" fill="black" >
0,72
</text>
<line x1="50.0" y1="500.0" x2="1550.0" y2="500.0" stroke="black" stroke-width="1" />
<text x="25.0" y="500.0" font-family="Verdana" font-size="10.0" text-anchor="middle"  dominant-baseline="middle" transform="rotate(-45,0 25,0 500,0)" fill="black" >
0,70
</text>
<line x1="50.0" y1="530.0" x2="1550.0" y2="530.0" stroke="black" stroke-width="1" />
<text x="25.0" y="530.0" font-family="Verdana" font-size="10.0" text-anchor="middle"  dominant-baseline="middle" transform="rotate(-45,0 25,0 530,0)" fill="black" >
0,68
</text>
<line x1="50.0" y1="560.0" x2="1550.0" y2="560.0" stroke="black" stroke-width="1" />
<text x="25.0" y="560.0" font-family="Verdana" font-size="10.0" text-anchor="middle"  dominant-baseline="middle" transform="rotate(-45,0 25,0 560,0)" fill="black" >
0,66
</text>
<line x1="50.0" y1="590.0" x2="1550.0" y2="590.0" stroke="black" stroke-width="1" />
<text x="25.0" y="590.0" font-family="Verdana" font-size="10.0" text-anchor="middle"  dominant-baseline="middle" transform="rotate(-45,0 25,0 590,0)" fill="black" >
0,64
</text>
<line x1="50.0" y1="620.0" x2="1550.0" y2="620.0" stroke="black" stroke-width="1" />
<text x="25.0" y="620.0" font-family="Verdana" font-size="10.0" text-anchor="middle"  dominant-baseline="middle" transform="rotate(-45,0 25,0 620,0)" fill="black" >
0,62
</text>
<line x1="50.0" y1="650.0" x2="1550.0" y2="650.0" stroke="black" stroke-width="1" />
<text x="25.0" y="650.0" font-family="Verdana" font-size="10.0" text-anchor="middle"  dominant-baseline="middle" transform="rotate(-45,0 25,0 650,0)" fill="black" >
0,60
</text>
<line x1="50.0" y1="680.0" x2="1550.0" y2="680.0" stroke="black" stroke-width="1" />
<text x="25.0" y="680.0" font-family="Verdana" font-size="10.0" text-anchor="middle"  dominant-baseline="middle" transform="rotate(-45,0 25,0 680,0)" fill="black" >
0,58
</text>
<line x1="50.0" y1="710.0" x2="1550.0" y2="710.0" stroke="black" stroke-width="1" />
<text x="25.0" y="710.0" font-family="Verdana" font-size="10.0" text-anchor="middle"  dominant-baseline="middle" transform="rotate(-45,0 25,0 710,0)" fill="black" >
0,56
</text>
<line x1="50.0" y1="740.0" x2="1550.0" y2="740.0" stroke="black" stroke-width="1" />
<text x="25.0" y="740.0" font-family="Verdana" font-size="10.0" text-anchor="middle"  dominant-baseline="middle" transform="rotate(-45,0 25,0 740,0)" fill="black" >
0,54
</text>
<line x1="50.0" y1="770.0" x2="1550.0" y2="770.0" stroke="black" stroke-width="1" />
<text x="25.0" y="770.0" font-family="Verdana" font-size="10.0" text-anchor="middle"  dominant-baseline="middle" transform="rotate(-45,0 25,0 770,0)" fill="black" >
0,52
</text>
<line x1="50.0" y1="800.0" x2="1550.0" y2="800.0" stroke="black" stroke-width="1" />
<text x="25.0" y="800.0" font-family="Verdana" font-size="10.0" text-anchor="middle"  dominant-baseline="middle" transform="rotate(-45,0 25,0 800,0)" fill="black" >
0,50
</text>
<line x1="50.0" y1="830.0" x2="1550.0" y2="830.0" stroke="black" stroke-width="1" />
<text x="25.0" y="830.0" font-family="Verdana" font-size="10.0" text-anchor="middle"  dominant-baseline="middle" transform="rotate(-45,0 25,0 830,0)" fill="black" >
0,48
</text>
<line x1="50.0" y1="860.0" x2="1550.0" y2="860.0" stroke="black" stroke-width="1" />
<text x="25.0" y="860.0" font-family="Verdana" font-size="10.0" text-anchor="middle"  dominant-baseline="middle" transform="rotate(-45,0 25,0 860,0)" fill="black" >
0,46
</text>
<line x1="50.0" y1="890.0" x2="1550.0" y2="890.0" stroke="black" stroke-width="1" />
<text x="25.0" y="890.0" font-family="Verdana" font-size="10.0" text-anchor="middle"  dominant-baseline="middle" transform="rotate(-45,0 25,0 890,0)" fill="black" >
0,44
</text>
<line x1="50.0" y1="920.0" x2="1550.0" y2="920.0" stroke="black" stroke-width="1" />
<text x="25.0" y="920.0" font-family="Verdana" font-size="10.0" text-anchor="middle"  dominant-baseline="middle" transform="rotate(-45,0 25,0 920,0)" fill="black" >
0,42
</text>
<line x1="50.0" y1="950.0" x2="1550.0" y2="950.0" stroke="black" stroke-width="1" />
<text x="25.0" y="950.0" font-family="Verdana" font-size="10.0" text-anchor="middle"  dominant-baseline="middle" transform="rotate(-45,0 25,0 950,0)" fill="black" >
0,40
</text>
<line x1="50.0" y1="980.0" x2="1550.0" y2="980.0" stroke="black" stroke-width="1" />
<text x="25.0" y="980.0" font-family="Verdana" font-size="10.0" text-anchor="middle"  dominant-baseline="middle" transform="rotate(-45,0 25,0 980,0)" fill="black" >
0,38
</text>
<line x1="50.0" y1="1010.0" x2="1550.0" y2="1010.0" stroke="black" stroke-width="1" />
<text x="25.0" y="1010.0" font-family="Verdana" font-size="10.0" text-anchor="middle"  dominant-baseline="middle" transform="rotate(-45,0 25,0 1010,0)" fill="black" >
0,36
</text>
<line x1="50.0" y1="1040.0" x2="1550.0" y2="1040.0" stroke="black" stroke-width="1" />
<text x="25.0" y="1040.0" font-family="Verdana" font-size="10.0" text-anchor="middle"  dominant-baseline="middle" transform="rotate(-45,0 25,0 1040,0)" fill="black" >
0,34
</text>
<line x1="50.0" y1="1070.0" x2="1550.0" y2="1070.0" stroke="black" stroke-width="1" />
<text x="25.0" y="1070.0" font-family="Verdana" font-size="10.0" text-anchor="middle"  dominant-baseline="middle" transform="rotate(-45,0 25,0 1070,0)" fill="black" >
0,32
</text>
<line x1="50.0" y1="1100.0" x2="1550.0" y2="1100.0" stroke="black" stroke-width="1" />
<text x="25.0" y="1100.0" font-family="Verdana" font-size="10.0" text-anchor="middle"  dominant-baseline="middle" transform="rotate(-45,0 25,0 1100,0)" fill="black" >
0,30
</text>
<line x1="50.0" y1="1130.0" x2="1550.0" y2="1130.0" stroke="black" stroke-width="1" />
<text x="25.0" y="1130.0" font-family="Verdana" font-size="10.0" text-anchor="middle"  dominant-baseline="middle" transform="rotate(-45,0 25,0 1130,0)" fill="black" >
0,28
</text>
<line x1="50.0" y1="1160.0" x2="1550.0" y2="1160.0" stroke="black" stroke-width="1" />
<text x="25.0" y="1160.0" font-family="Verdana" font-size="10.0" text-anchor="middle"  dominant-baseline="middle" transform="rotate(-45,0 25,0 1160,0)" fill="black" >
0,26
</text>
<line x1="50.0" y1="1190.0" x2="1550.0" y2="1190.0" stroke="black" stroke-width="1" />
<text x="25.0" y="1190.0" font-family="Verdana" font-size="10.0" text-anchor="middle"  dominant-baseline="middle" transform="rotate(-45,0 25,0 1190,0)" fill="black" >
0,24
</text>
<line x1="50.0" y1="1220.0" x2="1550.0" y2="1220.0" stroke="black" stroke-width="1" />
<text x="25.0" y="1220.0" font-family="Verdana" font-size="10.0" text-anchor="middle"  dominant-baseline="middle" transform="rotate(-45,0 25,0 1220,0)" fill="black" >
0,22
</text>
<line x1="50.0" y1="1250.0" x2="1550.0" y2="1250.0" stroke="black" stroke-width="1" />
<text x="25.0" y="1250.0" font-family="Verdana" font-size="10.0" text-anchor="middle"  dominant-baseline="middle" transform="rotate(-45,0 25,0 1250,0)" fill="black" >
0,20
</text>
<line x1="50.0" y1="1280.0" x2="1550.0" y2="1280.0" stroke="black" stroke-width="1" />
<text x="25.0" y="1280.0" font-family="Verdana" font-size="10.0" text-anchor="middle"  dominant-baseline="middle" transform="rotate(-45,0 25,0 1280,0)" fill="black" >
0,18
</text>
<line x1="50.0" y1="1310.0" x2="1550.0" y2="1310.0" stroke="black" stroke-width="1" />
<text x="25.0" y="1310.0" font-family="Verdana" font-size="10.0" text-anchor="middle"  dominant-baseline="middle" transform="rotate(-45,0 25,0 1310,0)" fill="black" >
0,16
</text>
<line x1="50.0" y1="1340.0" x2="1550.0" y2="1340.0" stroke="black" stroke-width="1" />
<text x="25.0" y="1340.0" font-family="Verdana" font-size="10.0" text-anchor="middle"  dominant-baseline="middle" transform="rotate(-45,0 25,0 1340,0)" fill="black" >
0,14
</text>
<line x1="50.0" y1="1370.0" x2="1550.0" y2="1370.0" stroke="black" stroke-width="1" />
<text x="25.0" y="1370.0" font-family="Verdana" font-size="10.0" text-anchor="middle"  dominant-baseline="middle" transform="rotate(-45,0 25,0 1370,0)" fill="black" >
0,12
</text>
<line x1="50.0" y1="1400.0" x2="1550.0" y2="1400.0" stroke="black" stroke-width="1" />
<text x="25.0" y="1400.0" font-family="Verdana" font-size="10.0" text-anchor="middle"  dominant-baseline="middle" transform="rotate(-45,0 25,0 1400,0)" fill="black" >
0,10
</text>
<line x1="50.0" y1="1430.0" x2="1550.0" y2="1430.0" stroke="black" stroke-width="1" />
<text x="25.0" y="1430.0" font-family="Verdana" font-size="10.0" text-anchor="middle"  dominant-baseline="middle" transform="rotate(-45,0 25,0 1430,0)" fill="black" >
0,08
</text>
<line x1="50.0" y1="1460.0" x2="1550.0" y2="1460.0" stroke="black" stroke-width="1" />
<text x="25.0" y="1460.0" font-family="Verdana" font-size="10.0" text-anchor="middle"  dominant-baseline="middle" transform="rotate(-45,0 25,0 1460,0)" fill="black" >
0,06
</text>
<line x1="50.0" y1="1490.0" x2="1550.0" y2="1490.0" stroke="black" stroke-width="1" />
<text x="25.0" y="1490.0" font-family="Verdana" font-size="10.0" text-anchor="middle"  dominant-baseline="middle" transform="rotate(-45,0 25,0 1490,0)" fill="black" >
0,04
</text>
<line x1="50.0" y1="1520.0" x2="1550.0" y2="1520.0" stroke="black" stroke-width="1" />
<text x="25.0" y="1520.0" font-family="Verdana" font-size="10.0" text-anchor="middle"  dominant-baseline="middle" transform="rotate(-45,0 25,0 1520,0)" fill="black" >
0,02
</text>
<line x1="50.0" y1="1550.0" x2="1550.0" y2="1550.0" stroke="black" stroke-width="1" />
<text x="25.0" y="1550.0" font-family="Verdana" font-size="10.0" text-anchor="middle"  dominant-baseline="middle" transform="rotate(-45,0 25,0 1550,0)" fill="black" >
0,00
</text>
<line x1="50.0" y1="50.0" x2="50.0" y2="1550.0" stroke="black" stroke-width="1" />
<text x="50.0" y="1566.6666666666667" font-family="Verdana" font-size="10.0" text-anchor="middle"  dominant-baseline="middle" transform="rotate(-60,0 50,0 1566,7)" fill="black" >
150,00
</text>
<line x1="80.0" y1="50.0" x2="80.0" y2="1550.0" stroke="black" stroke-width="1" />
<text x="80.0" y="1566.6666666666667" font-family="Verdana" font-size="10.0" text-anchor="middle"  dominant-baseline="middle" transform="rotate(-60,0 80,0 1566,7)" fill="black" >
162,00
</text>
<line x1="110.0" y1="50.0" x2="110.0" y2="1550.0" stroke="black" stroke-width="1" />
<text x="110.0" y="1566.6666666666667" font-family="Verdana" font-size="10.0" text-anchor="middle"  dominant-baseline="middle" transform="rotate(-60,0 110,0 1566,7)" fill="black" >
174,00
</text>
<line x1="140.0" y1="50.0" x2="140.0" y2="1550.0" stroke="black" stroke-width="1" />
<text x="140.0" y="1566.6666666666667" font-family="Verdana" font-size="10.0" text-anchor="middle"  dominant-baseline="middle" transform="rotate(-60,0 140,0 1566,7)" fill="black" >
186,00
</text>
<line x1="170.0" y1="50.0" x2="170.0" y2="1550.0" stroke="black" stroke-width="1" />
<text x="170.0" y="1566.6666666666667" font-family="Verdana" font-size="10.0" text-anchor="middle"  dominant-baseline="middle" transform="rotate(-60,0 170,0 1566,7)" fill="black" >
198,00
</text>
<line x1="200.0" y1="50.0" x2="200.0" y2="1550.0" stroke="black" stroke-width="1" />
<text x="200.0" y="1566.6666666666667" font-family="Verdana" font-size="10.0" text-anchor="middle"  dominant-baseline="middle" transform="rotate(-60,0 200,0 1566,7)" fill="black" >
210,00
</text>
<line x1="230.0" y1="50.0" x2="230.0" y2="1550.0" stroke="black" stroke-width="1" />
<text x="230.0" y="1566.6666666666667" font-family="Verdana" font-size="10.0" text-anchor="middle"  dominant-baseline="middle" transform="rotate(-60,0 230,0 1566,7)" fill="black" >
222,00
</text>
<line x1="260.0" y1="50.0" x2="260.0" y2="1550.0" stroke="black" stroke-width="1" />
<text x="260.0" y="1566.6666666666667" font-family="Verdana" font-size="10.0" text-anchor="middle"  dominant-baseline="middle" transform="rotate(-60,0 260,0 1566,7)" fill="black" >
234,00
</text>
<line x1="290.0" y1="50.0" x2="290.0" y2="1550.0" stroke="black" stroke-width="1" />
<text x="290.0" y="1566.6666666666667" font-family="Verdana" font-size="10.0" text-anchor="middle"  dominant-baseline="middle" transform="rotate(-60,0 290,0 1566,7)" fill="black" >
246,00
</text>
<line x1="320.0" y1="50.0" x2="320.0" y2="1550.0" stroke="black" stroke-width="1" />
<text x="320.0" y="1566.6666666666667" font-family="Verdana" font-size="10.0" text-anchor="middle"  dominant-baseline="middle" transform="rotate(-60,0 320,0 1566,7)" fill="black" >
258,00
</text>
<line x1="350.0" y1="50.0" x2="350.0" y2="1550.0" stroke="black" stroke-width="1" />
<text x="350.0" y="1566.6666666666667" font-family="Verdana" font-size="10.0" text-anchor="middle"  dominant-baseline="middle" transform="rotate(-60,0 350,0 1566,7)" fill="black" >
270,00
</text>
<line x1="380.0" y1="50.0" x2="380.0" y2="1550.0" stroke="black" stroke-width="1" />
<text x="380.0" y="1566.6666666666667" font-family="Verdana" font-size="10.0" text-anchor="middle"  dominant-baseline="middle" transform="rotate(-60,0 380,0 1566,7)" fill="black" >
282,00
</text>
<line x1="410.0" y1="50.0" x2="410.0" y2="1550.0" stroke="black" stroke-width="1" />
<text x="410.0" y="1566.6666666666667" font-family="Verdana" font-size="10.0" text-anchor="middle"  dominant-baseline="middle" transform="rotate(-60,0 410,0 1566,7)" fill="black" >
294,00
</text>
<line x1="440.0" y1="50.0" x2="440.0" y2="1550.0" stroke="black" stroke-width="1" />
<text x="440.0" y="1566.6666666666667" font-family="Verdana" font-size="10.0" text-anchor="middle"  dominant-baseline="middle" transform="rotate(-60,0 440,0 1566,7)" fill="black" >
306,00
</text>
<line x1="470.0" y1="50.0" x2="470.0" y2="1550.0" stroke="black" stroke-width="1" />
<text x="470.0" y="1566.6666666666667" font-family="Verdana" font-size="10.0" text-anchor="middle"  dominant-baseline="middle" transform="rotate(-60,0 470,0 1566,7)" fill="black" >
318,00
</text>
<line x1="500.0" y1="50.0" x2="500.0" y2="1550.0" stroke="black" stroke-width="1" />
<text x="500.0" y="1566.6666666666667" font-family="Verdana" font-size="10.0" text-anchor="middle"  dominant-baseline="middle" transform="rotate(-60,0 500,0 1566,7)" fill="black" >
330,00
</text>
<line x1="530.0" y1="50.0" x2="530.0" y2="1550.0" stroke="black" stroke-width="1" />
<text x="530.0" y="1566.6666666666667" font-family="Verdana" font-size="10.0" text-anchor="middle"  dominant-baseline="middle" transform="rotate(-60,0 530,0 1566,7)" fill="black" >
342,00
</text>
<line x1="560.0" y1="50.0" x2="560.0" y2="1550.0" stroke="black" stroke-width="1" />
<text x="560.0" y="1566.6666666666667" font-family="Verdana" font-size="10.0" text-anchor="middle"  dominant-baseline="middle" transform="rotate(-60,0 560,0 1566,7)" fill="black" >
354,00
</text>
<line x1="590.0" y1="50.0" x2="590.0" y2="1550.0" stroke="black" stroke-width="1" />
<text x="590.0" y="1566.6666666666667" font-family="Verdana" font-size="10.0" text-anchor="middle"  dominant-baseline="middle" transform="rotate(-60,0 590,0 1566,7)" fill="black" >
366,00
</text>
<line x1="620.0" y1="50.0" x2="620.0" y2="1550.0" stroke="black" stroke-width="1" />
<text x="620.0" y="1566.6666666666667" font-family="Verdana" font-size="10.0" text-anchor="middle"  dominant-baseline="middle" transform="rotate(-60,0 620,0 1566,7)" fill="black" >
378,00
</text>
<line x1="650.0" y1="50.0" x2="650.0" y2="1550.0" stroke="black" stroke-width="1" />
<text x="650.0" y="1566.6666666666667" font-family="Verdana" font-size="10.0" text-anchor="middle"  dominant-baseline="middle" transform="rotate(-60,0 650,0 1566,7)" fill="black" >
390,00
</text>
<line x1="680.0" y1="50.0" x2="680.0" y2="1550.0" stroke="black" stroke-width="1" />
<text x="680.0" y="1566.6666666666667" font-family="Verdana" font-size="10.0" text-anchor="middle"  dominant-baseline="middle" transform="rotate(-60,0 680,0 1566,7)" fill="black" >
402,00
</text>
<line x1="710.0" y1="50.0" x2="710.0" y2="1550.0" stroke="black" stroke-width="1" />
<text x="710.0" y="1566.6666666666667" font-family="Verdana" font-size="10.0" text-anchor="middle"  dominant-baseline="middle" transform="rotate(-60,0 710,0 1566,7)" fill="black" >
414,00
</text>
<line x1="740.0" y1="50.0" x2="740.0" y2="1550.0" stroke="black" stroke-width="1" />
<text x="740.0" y="1566.6666666666667" font-family="Verdana" font-size="10.0" text-anchor="middle"  dominant-baseline="middle" transform="rotate(-60,0 740,0 1566,7)" fill="black" >
426,00
</text>
<line x1="770.0" y1="50.0" x2="770.0" y2="1550.0" stroke="black" stroke-width="1" />
<text x="770.0" y="1566.6666666666667" font-family="Verdana" font-size="10.0" text-anchor="middle"  dominant-baseline="middle" transform="rotate(-60,0 770,0 1566,7)" fill="black" >
438,00
</text>
<line x1="800.0" y1="50.0" x2="800.0" y2="1550.0" stroke="black" stroke-width="1" />
<text x="800.0" y="1566.6666666666667" font-family="Verdana" font-size="10.0" text-anchor="middle"  dominant-baseline="middle" transform="rotate(-60,0 800,0 1566,7)" fill="black" >
450,00
</text>
<line x1="830.0" y1="50.0" x2="830.0" y2="1550.0" stroke="black" stroke-width="1" />
<text x="830.0" y="1566.6666666666667" font-family="Verdana" font-size="10.0" text-anchor="middle"  dominant-baseline="middle" transform="rotate(-60,0 830,0 1566,7)" fill="black" >
462,00
</text>
<line x1="860.0" y1="50.0" x2="860.0" y2="1550.0" stroke="black" stroke-width="1" />
<text x="860.0" y="1566.6666666666667" font-family="Verdana" font-size="10.0" text-anchor="middle"  dominant-baseline="middle" transform="rotate(-60,0 860,0 1566,7)" fill="black" >
474,00
</text>
<line x1="890.0" y1="50.0" x2="890.0" y2="1550.0" stroke="black" stroke-width="1" />
<text x="890.0" y="1566.6666666666667" font-family="Verdana" font-size="10.0" text-anchor="middle"  dominant-baseline="middle" transform="rotate(-60,0 890,0 1566,7)" fill="black" >
486,00
</text>
<line x1="920.0" y1="50.0" x2="920.0" y2="1550.0" stroke="black" stroke-width="1" />
<text x="920.0" y="1566.6666666666667" font-family="Verdana" font-size="10.0" text-anchor="middle"  dominant-baseline="middle" transform="rotate(-60,0 920,0 1566,7)" fill="black" >
498,00
</text>
<line x1="950.0" y1="50.0" x2="950.0" y2="1550.0" stroke="black" stroke-width="1" />
<text x="950.0" y="1566.6666666666667" font-family="Verdana" font-size="10.0" text-anchor="middle"  dominant-baseline="middle" transform="rotate(-60,0 950,0 1566,7)" fill="black" >
510,00
</text>
<line x1="980.0" y1="50.0" x2="980.0" y2="1550.0" stroke="black" stroke-width="1" />
<text x="980.0" y="1566.6666666666667" font-family="Verdana" font-size="10.0" text-anchor="middle"  dominant-baseline="middle" transform="rotate(-60,0 980,0 1566,7)" fill="black" >
522,00
</text>
<line x1="1010.0" y1="50.0" x2="1010.0" y2="1550.0" stroke="black" stroke-width="1" />
<text x="1010.0" y="1566.6666666666667" font-family="Verdana" font-size="10.0" text-anchor="middle"  dominant-baseline="middle" transform="rotate(-60,0 1010,0 1566,7)" fill="black" >
534,00
</text>
<line x1="1040.0" y1="50.0" x2="1040.0" y2="1550.0" stroke="black" stroke-width="1" />
<text x="1040.0" y="1566.6666666666667" font-family="Verdana" font-size="10.0" text-anchor="middle"  dominant-baseline="middle" transform="rotate(-60,0 1040,0 1566,7)" fill="black" >
546,00
</text>
<line x1="1070.0" y1="50.0" x2="1070.0" y2="1550.0" stroke="black" stroke-width="1" />
<text x="1070.0" y="1566.6666666666667" font-family="Verdana" font-size="10.0" text-anchor="middle"  dominant-baseline="middle" transform="rotate(-60,0 1070,0 1566,7)" fill="black" >
558,00
</text>
<line x1="1100.0" y1="50.0" x2="1100.0" y2="1550.0" stroke="black" stroke-width="1" />
<text x="1100.0" y="1566.6666666666667" font-family="Verdana" font-size="10.0" text-anchor="middle"  dominant-baseline="middle" transform="rotate(-60,0 1100,0 1566,7)" fill="black" >
570,00
</text>
<line x1="1130.0" y1="50.0" x2="1130.0" y2="1550.0" stroke="black" stroke-width="1" />
<text x="1130.0" y="1566.6666666666667" font-family="Verdana" font-size="10.0" text-anchor="middle"  dominant-baseline="middle" transform="rotate(-60,0 1130,0 1566,7)" fill="black" >
582,00
</text>
<line x1="1160.0" y1="50.0" x2="1160.0" y2="1550.0" stroke="black" stroke-width="1" />
<text x="1160.0" y="1566.6666666666667" font-family="Verdana" font-size="10.0" text-anchor="middle"  dominant-baseline="middle" transform="rotate(-60,0 1160,0 1566,7)" fill="black" >
594,00
</text>
<line x1="1190.0" y1="50.0" x2="1190.0" y2="1550.0" stroke="black" stroke-width="1" />
<text x="1190.0" y="1566.6666666666667" font-family="Verdana" font-size="10.0" text-anchor="middle"  dominant-baseline="middle" transform="rotate(-60,0 1190,0 1566,7)" fill="black" >
606,00
</text>
<line x1="1220.0" y1="50.0" x2="1220.0" y2="1550.0" stroke="black" stroke-width="1" />
<text x="1220.0" y="1566.6666666666667" font-family="Verdana" font-size="10.0" text-anchor="middle"  dominant-baseline="middle" transform="rotate(-60,0 1220,0 1566,7)" fill="black" >
618,00
</text>
<line x1="1250.0" y1="50.0" x2="1250.0" y2="1550.0" stroke="black" stroke-width="1" />
<text x="1250.0" y="1566.6666666666667" font-family="Verdana" font-size="10.0" text-anchor="middle"  dominant-baseline="middle" transform="rotate(-60,0 1250,0 1566,7)" fill="black" >
630,00
</text>
<line x1="1280.0" y1="50.0" x2="1280.0" y2="1550.0" stroke="black" stroke-width="1" />
<text x="1280.0" y="1566.6666666666667" font-family="Verdana" font-size="10.0" text-anchor="middle"  dominant-baseline="middle" transform="rotate(-60,0 1280,0 1566,7)" fill="black" >
642,00
</text>
<line x1="1310.0" y1="50.0" x2="1310.0" y2="1550.0" stroke="black" stroke-width="1" />
<text x="1310.0" y="1566.6666666666667" font-family="Verdana" font-size="10.0" text-anchor="middle"  dominant-baseline="middle" transform="rotate(-60,0 1310,0 1566,7)" fill="black" >
654,00
</text>
<line x1="1340.0" y1="50.0" x2="1340.0" y2="1550.0" stroke="black" stroke-width="1" />
<text x="1340.0" y="1566.6666666666667" font-family="Verdana" font-size="10.0" text-anchor="middle"  dominant-baseline="middle" transform="rotate(-60,0 1340,0 1566,7)" fill="black" >
666,00
</text>
<line x1="1370.0" y1="50.0" x2="1370.0" y2="1550.0" stroke="black" stroke-width="1" />
<text x="1370.0" y="1566.6666666666667" font-family="Verdana" font-size="10.0" text-anchor="middle"  dominant-baseline="middle" transform="rotate(-60,0 1370,0 1566,7)" fill="black" >
678,00
</text>
<line x1="1400.0" y1="50.0" x2="1400.0" y2="1550.0" stroke="black" stroke-width="1" />
<text x="1400.0" y="1566.6666666666667" font-family="Verdana" font-size="10.0" text-anchor="middle"  dominant-baseline="middle" transform="rotate(-60,0 1400,0 1566,7)" fill="black" >
690,00
</text>
<line x1="1430.0" y1="50.0" x2="1430.0" y2="1550.0" stroke="black" stroke-width="1" />
<text x="1430.0" y="1566.6666666666667" font-family="Verdana" font-size="10.0" text-anchor="middle"  dominant-baseline="middle" transform="rotate(-60,0 1430,0 1566,7)" fill="black" >
702,00
</text>
<line x1="1460.0" y1="50.0" x2="1460.0" y2="1550.0" stroke="black" stroke-width="1" />
<text x="1460.0" y="1566.6666666666667" font-family="Verdana" font-size="10.0" text-anchor="middle"  dominant-baseline="middle" transform="rotate(-60,0 1460,0 1566,7)" fill="black" >
714,00
</text>
<line x1="1490.0" y1="50.0" x2="1490.0" y2="1550.0" stroke="black" stroke-width="1" />
<text x="1490.0" y="1566.6666666666667" font-family="Verdana" font-size="10.0" text-anchor="middle"  dominant-baseline="middle" transform="rotate(-60,0 1490,0 1566,7)" fill="black" >
726,00
</text>
<line x1="1520.0" y1="50.0" x2="1520.0" y2="1550.0" stroke="black" stroke-width="1" />
<text x="1520.0" y="1566.6666666666667" font-family="Verdana" font-size="10.0" text-anchor="middle"  dominant-baseline="middle" transform="rotate(-60,0 1520,0 1566,7)" fill="black" >
738,00
</text>
<line x1="1550.0" y1="50.0" x2="1550.0" y2="1550.0" stroke="black" stroke-width="1" />
<text x="1550.0" y="1566.6666666666667" font-family="Verdana" font-size="10.0" text-anchor="middle"  dominant-baseline="middle" transform="rotate(-60,0 1550,0 1566,7)" fill="black" >
750,00
</text>
<circle cx ='50,000000' cy ='494,762757' r='4' fill ='blue' />
<circle cx ='200,000000' cy ='474,331756' r='4' fill ='blue' />
<circle cx ='375,000000' cy ='450,495588' r='4' fill ='blue' />
<circle cx ='1375,000000' cy ='314,288912' r='4' fill ='blue' />
<circle cx ='1475,000000' cy ='300,668244' r='4' fill ='blue' />
<circle cx ='1550,000000' cy ='290,452743' r='4' fill ='blue' />
<text x="750.0" y="25.0" font-family="Verdana" font-size="25.0" text-anchor="middle"  dominant-baseline="middle" transform="rotate(0,0 750,0 25,0)" fill="green" >
Droite de regression
</text>
<text x="750.0" y="1584.0" font-family="Verdana" font-size="16.0" text-anchor="middle"  dominant-baseline="middle" transform="rotate(0,0 750,0 1584,0)" fill="blue" >
x( Length )
</text>
<text x="1584.0" y="750.0" font-family="Verdana" font-size="16.0" text-anchor="middle"  dominant-baseline="middle" transform="rotate(90,0 1584,0 750,0)" fill="blue" >
y( InfestationRate )
</text>
<polyline points = '50,000000,494,762757 200,000000,474,331756 375,000000,450,495588 1375,000000,314,288912 1475,000000,300,668244 1550,000000,290,452743 ' stroke='red' stroke-width='2' fill='none'/>
</svg>